<svg width="15" height="15" viewBox="0 0 15 15" fill="none" xmlns="http://www.w3.org/2000/svg">
<g clip-path="url(#clip0_50_1646)">
<path d="M13.4375 5.6251C13.0265 4.37467 12.2312 3.28592 11.1651 2.51406C10.0989 1.74221 8.81624 1.32666 7.5 1.32666C6.18376 1.32666 4.90112 1.74221 3.83495 2.51406C2.76877 3.28592 1.9735 4.37467 1.5625 5.6251M1.25 3.1251V5.6251H3.75M11.25 9.3751H13.75V11.8751M1.5625 9.3751C1.9735 10.6255 2.76877 11.7143 3.83495 12.4861C4.90112 13.258 6.18376 13.6735 7.5 13.6735C8.81624 13.6735 10.0989 13.258 11.1651 12.4861C12.2312 11.7143 13.0265 10.6255 13.4375 9.3751" stroke="white" stroke-width="1.25" stroke-linecap="round" stroke-linejoin="round"/>
</g>
<defs>
<clipPath id="clip0_50_1646">
<rect width="15" height="15" fill="white"/>
</clipPath>
</defs>
</svg>
