<svg width="57" height="56" viewBox="0 0 57 56" fill="none" xmlns="http://www.w3.org/2000/svg">
<circle cx="28.625" cy="28" r="28" fill="#F4F7FE"/>
<path d="M29.75 31.9201H30.4C31.05 31.9201 31.59 31.3401 31.59 30.6401C31.59 29.7701 31.28 29.6001 30.77 29.4201L29.76 29.0701V31.9201H29.75Z" fill="#4318FF"/>
<path d="M28.9701 17.8999C23.4501 17.9199 18.9801 22.4099 19.0001 27.9299C19.0201 33.4499 23.5101 37.9199 29.0301 37.8999C34.5501 37.8799 39.0201 33.3899 39.0001 27.8699C38.9801 22.3499 34.4901 17.8899 28.9701 17.8999ZM31.2601 27.9999C32.0401 28.2699 33.0901 28.8499 33.0901 30.6399C33.0901 32.1799 31.8801 33.4199 30.4001 33.4199H29.7501V33.9999C29.7501 34.4099 29.4101 34.7499 29.0001 34.7499C28.5901 34.7499 28.2501 34.4099 28.2501 33.9999V33.4199H27.8901C26.2501 33.4199 24.9201 32.0399 24.9201 30.3399C24.9201 29.9299 25.2601 29.5899 25.6701 29.5899C26.0801 29.5899 26.4201 29.9299 26.4201 30.3399C26.4201 31.2099 27.0801 31.9199 27.8901 31.9199H28.2501V28.5399L26.7401 27.9999C25.9601 27.7299 24.9101 27.1499 24.9101 25.3599C24.9101 23.8199 26.1201 22.5799 27.6001 22.5799H28.2501V21.9999C28.2501 21.5899 28.5901 21.2499 29.0001 21.2499C29.4101 21.2499 29.7501 21.5899 29.7501 21.9999V22.5799H30.1101C31.7501 22.5799 33.0801 23.9599 33.0801 25.6599C33.0801 26.0699 32.7401 26.4099 32.3301 26.4099C31.9201 26.4099 31.5801 26.0699 31.5801 25.6599C31.5801 24.7899 30.9201 24.0799 30.1101 24.0799H29.7501V27.4599L31.2601 27.9999Z" fill="#4318FF"/>
<path d="M26.4199 25.3701C26.4199 26.2401 26.7299 26.4101 27.2399 26.5901L28.2499 26.9401V24.0801H27.5999C26.9499 24.0801 26.4199 24.6601 26.4199 25.3701Z" fill="#4318FF"/>
</svg>
