<svg width="57" height="56" viewBox="0 0 57 56" fill="none" xmlns="http://www.w3.org/2000/svg">
<circle cx="28.375" cy="28" r="28" fill="#F4F7FE"/>
<path d="M31.8002 18.21C31.3902 17.8 30.6802 18.08 30.6802 18.65V22.14C30.6802 23.6 31.9202 24.81 33.4302 24.81C34.3802 24.82 35.7002 24.82 36.8302 24.82C37.4002 24.82 37.7002 24.15 37.3002 23.75C35.8602 22.3 33.2802 19.69 31.8002 18.21Z" fill="#05CD99"/>
<path d="M36.5 26.19H33.61C31.24 26.19 29.31 24.26 29.31 21.89V19C29.31 18.45 28.86 18 28.31 18H24.07C20.99 18 18.5 20 18.5 23.57V32.43C18.5 36 20.99 38 24.07 38H31.93C35.01 38 37.5 36 37.5 32.43V27.19C37.5 26.64 37.05 26.19 36.5 26.19ZM27.5 33.75H23.5C23.09 33.75 22.75 33.41 22.75 33C22.75 32.59 23.09 32.25 23.5 32.25H27.5C27.91 32.25 28.25 32.59 28.25 33C28.25 33.41 27.91 33.75 27.5 33.75ZM29.5 29.75H23.5C23.09 29.75 22.75 29.41 22.75 29C22.75 28.59 23.09 28.25 23.5 28.25H29.5C29.91 28.25 30.25 28.59 30.25 29C30.25 29.41 29.91 29.75 29.5 29.75Z" fill="#05CD99"/>
</svg>
