<svg width="57" height="56" viewBox="0 0 57 56" fill="none" xmlns="http://www.w3.org/2000/svg">
<circle cx="28.625" cy="28" r="28" fill="#F4F7FE"/>
<path d="M37.5 26.19H34.61C32.24 26.19 30.31 24.26 30.31 21.89V19C30.31 18.45 29.86 18 29.31 18H25.07C21.99 18 19.5 20 19.5 23.57V32.43C19.5 36 21.99 38 25.07 38H32.93C36.01 38 38.5 36 38.5 32.43V27.19C38.5 26.64 38.05 26.19 37.5 26.19ZM29.4 31.58L27.54 33.44C27.31 33.67 26.99 33.8 26.65 33.8C26.31 33.8 26 33.67 25.76 33.44L23.9 31.58C23.49 31.17 23.42 30.48 23.75 30L24.6 28.72C24.81 28.39 25.25 28.16 25.64 28.16H27.65C28.04 28.16 28.47 28.39 28.69 28.72L29.55 30C29.86 30.48 29.8 31.17 29.4 31.58Z" fill="#4318FF"/>
<path d="M34.4302 24.81C35.3802 24.82 36.7002 24.82 37.8302 24.82C38.4002 24.82 38.7002 24.15 38.3002 23.75C36.8602 22.3 34.2802 19.69 32.8002 18.21C32.3902 17.8 31.6802 18.08 31.6802 18.65V22.14C31.6802 23.6 32.9202 24.81 34.4302 24.81Z" fill="#4318FF"/>
</svg>
