<svg width="57" height="56" viewBox="0 0 57 56" fill="none" xmlns="http://www.w3.org/2000/svg">
<circle cx="28.375" cy="28" r="28" fill="#F4F7FE"/>
<path d="M34.8101 22.25H36.1701C35.9801 21.98 35.7801 21.73 35.5701 21.48L34.8101 22.25Z" fill="#05CD99"/>
<path d="M34.52 20.4201C34.27 20.2101 34.02 20.0101 33.75 19.8201V21.1801L34.52 20.4201Z" fill="#05CD99"/>
<path d="M35.58 21.4799L38.53 18.5299C38.82 18.2399 38.82 17.7599 38.53 17.4699C38.24 17.1799 37.76 17.1799 37.47 17.4699L34.52 20.4199C34.9 20.7499 35.25 21.1099 35.58 21.4799Z" fill="#05CD99"/>
<path d="M33.7498 19C33.7498 18.59 33.4098 18.25 32.9998 18.25C32.5998 18.25 32.2798 18.57 32.2598 18.96C32.7798 19.21 33.2798 19.49 33.7498 19.82V19Z" fill="#05CD99"/>
<path d="M37.7499 23C37.7499 22.59 37.4099 22.25 36.9999 22.25H36.1699C36.4999 22.72 36.7899 23.22 37.0299 23.74C37.4299 23.72 37.7499 23.4 37.7499 23Z" fill="#05CD99"/>
<path d="M28.75 30.75H29.05C29.44 30.75 29.75 30.4 29.75 29.97C29.75 29.43 29.6 29.35 29.26 29.23L28.75 29.05V30.75Z" fill="#05CD99"/>
<path d="M37.04 23.74C37.03 23.74 37.02 23.75 37 23.75H33C32.9 23.75 32.81 23.73 32.71 23.69C32.53 23.61 32.38 23.47 32.3 23.28C32.27 23.19 32.25 23.1 32.25 23V19C32.25 18.99 32.26 18.98 32.26 18.96C30.96 18.35 29.52 18 28 18C22.48 18 18 22.48 18 28C18 33.52 22.48 38 28 38C33.52 38 38 33.52 38 28C38 26.48 37.65 25.04 37.04 23.74ZM29.75 27.82C30.39 28.04 31.25 28.51 31.25 29.98C31.25 31.23 30.26 32.26 29.05 32.26H28.75V32.51C28.75 32.92 28.41 33.26 28 33.26C27.59 33.26 27.25 32.92 27.25 32.51V32.26H27.17C25.84 32.26 24.75 31.14 24.75 29.76C24.75 29.34 25.09 29 25.5 29C25.91 29 26.25 29.34 26.25 29.75C26.25 30.3 26.66 30.75 27.17 30.75H27.25V28.53L26.25 28.18C25.61 27.96 24.75 27.49 24.75 26.02C24.75 24.77 25.74 23.74 26.95 23.74H27.25V23.5C27.25 23.09 27.59 22.75 28 22.75C28.41 22.75 28.75 23.09 28.75 23.5V23.75H28.83C30.16 23.75 31.25 24.87 31.25 26.25C31.25 26.66 30.91 27 30.5 27C30.09 27 29.75 26.66 29.75 26.25C29.75 25.7 29.34 25.25 28.83 25.25H28.75V27.47L29.75 27.82Z" fill="#05CD99"/>
<path d="M26.25 26.03C26.25 26.57 26.4 26.65 26.74 26.77L27.25 26.95V25.25H26.95C26.57 25.25 26.25 25.6 26.25 26.03Z" fill="#05CD99"/>
</svg>
