<svg width="57" height="56" viewBox="0 0 57 56" fill="none" xmlns="http://www.w3.org/2000/svg">
<circle cx="28.875" cy="28" r="28" fill="#4318FF"/>
<path d="M24 18H23C20 18 19 19.79 19 22V23V37C19 37.83 19.94 38.3 20.6 37.8L22.31 36.52C22.71 36.22 23.27 36.26 23.63 36.62L25.29 38.29C25.68 38.68 26.32 38.68 26.71 38.29L28.39 36.61C28.74 36.26 29.3 36.22 29.69 36.52L31.4 37.8C32.06 38.29 33 37.82 33 37V20C33 18.9 33.9 18 35 18H24ZM28.25 29.75H23.75C23.34 29.75 23 29.41 23 29C23 28.59 23.34 28.25 23.75 28.25H28.25C28.66 28.25 29 28.59 29 29C29 29.41 28.66 29.75 28.25 29.75ZM29 25.75H23C22.59 25.75 22.25 25.41 22.25 25C22.25 24.59 22.59 24.25 23 24.25H29C29.41 24.25 29.75 24.59 29.75 25C29.75 25.41 29.41 25.75 29 25.75Z" fill="white"/>
<path d="M35.01 18V19.5C35.67 19.5 36.3 19.77 36.76 20.22C37.24 20.71 37.5 21.34 37.5 22V24.42C37.5 25.16 37.17 25.5 36.42 25.5H34.5V20.01C34.5 19.73 34.73 19.5 35.01 19.5V18ZM35.01 18C33.9 18 33 18.9 33 20.01V27H36.42C38 27 39 26 39 24.42V22C39 20.9 38.55 19.9 37.83 19.17C37.1 18.45 36.11 18.01 35.01 18C35.02 18 35.01 18 35.01 18Z" fill="white"/>
</svg>
