<svg width="57" height="56" viewBox="0 0 57 56" fill="none" xmlns="http://www.w3.org/2000/svg">
<circle cx="28.125" cy="28" r="28" fill="#F4F7FE"/>
<path d="M25 18C22.38 18 20.25 20.13 20.25 22.75C20.25 25.32 22.26 27.4 24.88 27.49C24.96 27.48 25.04 27.48 25.1 27.49C25.12 27.49 25.13 27.49 25.15 27.49C25.16 27.49 25.16 27.49 25.17 27.49C27.73 27.4 29.74 25.32 29.75 22.75C29.75 20.13 27.62 18 25 18Z" fill="#05CD99"/>
<path d="M30.08 30.1499C27.29 28.2899 22.74 28.2899 19.93 30.1499C18.66 30.9999 17.96 32.1499 17.96 33.3799C17.96 34.6099 18.66 35.7499 19.92 36.5899C21.32 37.5299 23.16 37.9999 25 37.9999C26.84 37.9999 28.68 37.5299 30.08 36.5899C31.34 35.7399 32.04 34.5999 32.04 33.3599C32.03 32.1299 31.34 30.9899 30.08 30.1499Z" fill="#05CD99"/>
<path d="M35.9899 23.3401C36.1499 25.2801 34.7699 26.9801 32.8599 27.2101C32.8499 27.2101 32.8499 27.2101 32.8399 27.2101H32.8099C32.7499 27.2101 32.6899 27.2101 32.6399 27.2301C31.6699 27.2801 30.7799 26.9701 30.1099 26.4001C31.1399 25.4801 31.7299 24.1001 31.6099 22.6001C31.5399 21.7901 31.2599 21.0501 30.8399 20.4201C31.2199 20.2301 31.6599 20.1101 32.1099 20.0701C34.0699 19.9001 35.8199 21.3601 35.9899 23.3401Z" fill="#05CD99"/>
<path d="M37.9902 32.5899C37.9102 33.5599 37.2902 34.3999 36.2502 34.9699C35.2502 35.5199 33.9902 35.7799 32.7402 35.7499C33.4602 35.0999 33.8802 34.2899 33.9602 33.4299C34.0602 32.1899 33.4702 30.9999 32.2902 30.0499C31.6202 29.5199 30.8402 29.0999 29.9902 28.7899C32.2002 28.1499 34.9802 28.5799 36.6902 29.9599C37.6102 30.6999 38.0802 31.6299 37.9902 32.5899Z" fill="#05CD99"/>
</svg>
