<svg width="57" height="56" viewBox="0 0 57 56" fill="none" xmlns="http://www.w3.org/2000/svg">
<circle cx="28.875" cy="28" r="28" fill="#F4F7FE"/>
<path d="M37.5 26.19H34.61C32.24 26.19 30.31 24.26 30.31 21.89V19C30.31 18.45 29.86 18 29.31 18H25.07C21.99 18 19.5 20 19.5 23.57V32.43C19.5 36 21.99 38 25.07 38H32.93C36.01 38 38.5 36 38.5 32.43V27.19C38.5 26.64 38.05 26.19 37.5 26.19ZM29.28 31.78L27.28 33.78C27.21 33.85 27.12 33.91 27.03 33.94C26.94 33.98 26.85 34 26.75 34C26.65 34 26.56 33.98 26.47 33.94C26.39 33.91 26.31 33.85 26.25 33.79C26.24 33.78 26.23 33.78 26.23 33.77L24.23 31.77C23.94 31.48 23.94 31 24.23 30.71C24.52 30.42 25 30.42 25.29 30.71L26 31.44V27.25C26 26.84 26.34 26.5 26.75 26.5C27.16 26.5 27.5 26.84 27.5 27.25V31.44L28.22 30.72C28.51 30.43 28.99 30.43 29.28 30.72C29.57 31.01 29.57 31.49 29.28 31.78Z" fill="#EE5D50"/>
<path d="M34.4302 24.81C35.3802 24.82 36.7002 24.82 37.8302 24.82C38.4002 24.82 38.7002 24.15 38.3002 23.75C36.8602 22.3 34.2802 19.69 32.8002 18.21C32.3902 17.8 31.6802 18.08 31.6802 18.65V22.14C31.6802 23.6 32.9202 24.81 34.4302 24.81Z" fill="#EE5D50"/>
</svg>
