<svg width="57" height="56" viewBox="0 0 57 56" fill="none" xmlns="http://www.w3.org/2000/svg">
<circle cx="28.125" cy="28" r="28" fill="#F4F7FE"/>
<path d="M36.5 26.19H33.61C31.24 26.19 29.31 24.26 29.31 21.89V19C29.31 18.45 28.86 18 28.31 18H24.07C20.99 18 18.5 20 18.5 23.57V32.43C18.5 36 20.99 38 24.07 38H31.93C35.01 38 37.5 36 37.5 32.43V27.19C37.5 26.64 37.05 26.19 36.5 26.19ZM28.28 31.78L26.28 33.78C26.21 33.85 26.12 33.91 26.03 33.94C25.94 33.98 25.85 34 25.75 34C25.65 34 25.56 33.98 25.47 33.94C25.39 33.91 25.31 33.85 25.25 33.79C25.24 33.78 25.23 33.78 25.23 33.77L23.23 31.77C22.94 31.48 22.94 31 23.23 30.71C23.52 30.42 24 30.42 24.29 30.71L25 31.44V27.25C25 26.84 25.34 26.5 25.75 26.5C26.16 26.5 26.5 26.84 26.5 27.25V31.44L27.22 30.72C27.51 30.43 27.99 30.43 28.28 30.72C28.57 31.01 28.57 31.49 28.28 31.78Z" fill="#05CD99"/>
<path d="M33.4302 24.81C34.3802 24.82 35.7002 24.82 36.8302 24.82C37.4002 24.82 37.7002 24.15 37.3002 23.75C35.8602 22.3 33.2802 19.69 31.8002 18.21C31.3902 17.8 30.6802 18.08 30.6802 18.65V22.14C30.6802 23.6 31.9202 24.81 33.4302 24.81Z" fill="#05CD99"/>
</svg>
